<?xml version="1.0" encoding="UTF-8"?>
<svg version="1.1" xmlns="http://www.w3.org/2000/svg" width="2048" height="2048">
<path d="M0 0 C87.54310308 -0.08580968 175.08671836 -0.13057061 406.79108965 0.38955754 C418.86452614 0.42406796 430.93796551 0.45728588 443.01140781 0.48969274 C568.88127826 0.82809861 568.88127826 0.82809861 625.15087891 1.25830078 C626.17478476 1.26609964 626.17478476 1.26609964 627.21937558 1.27405605 C654.47988581 1.48242669 681.73985725 1.74772867 709 2 C709 55.13 709 108.26 709 163 C500.77 163.33 292.54 163.66 78 164 C73.545 173.9 73.545 173.9 69 184 C51.20218659 214.36097582 25.40470301 237.69529901 -5 255 C-5.74975098 255.42909668 -6.49950195 255.85819336 -7.27197266 256.30029297 C-45.55335994 277.96327643 -90.21376843 288.56732167 -134 290 C-135.67449219 290.061875 -135.67449219 290.061875 -137.3828125 290.125 C-179.43843516 290.92037821 -223.18879227 278.86212547 -258 255 C-258.53834473 254.63680664 -259.07668945 254.27361328 -259.63134766 253.89941406 C-267.39685468 248.64067488 -274.49665412 243.0049464 -281.296875 236.546875 C-284.26157562 233.75354436 -287.33522172 231.12643103 -290.4765625 228.53515625 C-292.16837356 226.83033126 -293.04441349 225.19027996 -294 223 C-294.66 223 -295.32 223 -296 223 C-298.76767659 220.07417046 -301.20232458 216.87375174 -303.67626953 213.69775391 C-304.551332 212.57544029 -305.43243932 211.457811 -306.31982422 210.34521484 C-315.72846327 198.50253432 -331 178.67037025 -331 163 C-537.58 163 -744.16 163 -957 163 C-957 109.87 -957 56.74 -957 2 C-723.03 2 -489.06 2 -248 2 C-247.34 9.59 -246.68 17.18 -246 25 C-242.14803868 47.69905776 -235.94892618 69.48405323 -221.56640625 87.86328125 C-220 90 -220 90 -219 93 C-218.34 93 -217.68 93 -217 93 C-215.625 94.46875 -215.625 94.46875 -214 96.5 C-198.07379321 115.11334456 -173.38498224 124.96199115 -150 130 C-148.89140625 130.24621094 -147.7828125 130.49242187 -146.640625 130.74609375 C-118.6644949 135.7915401 -87.34567234 132.03082589 -62 119 C-60.90171875 118.44828125 -59.8034375 117.8965625 -58.671875 117.328125 C-49.48270531 112.51924525 -42.24630339 106.37067077 -35 99 C-34.23816406 98.236875 -33.47632813 97.47375 -32.69140625 96.6875 C-11.67346285 74.39946646 -4.50284086 42.31607266 -1.3828125 12.86328125 C-1.24818604 11.62147095 -1.11355957 10.37966064 -0.97485352 9.10021973 C-0.64652139 6.06716051 -0.32164557 3.03377432 0 0 Z " fill="#FFFFFF" transform="translate(1148,1391)"/>
<path d="M0 0 C0.81583557 0.03484497 1.63167114 0.06968994 2.472229 0.10559082 C31.05573256 1.35794785 59.56704332 4.38388107 88.02661133 7.23974609 C91.03185872 7.54121627 94.03738644 7.83961338 97.04321289 8.13525391 C111.4230682 9.54987668 125.78232065 10.97037283 140.0877533 13.02442932 C155.0262034 15.13049571 170.05990383 16.55768566 185.0625 18.125 C185.90116608 18.21286648 186.73983215 18.30073296 187.60391235 18.39126205 C232.34303151 23.07839054 277.03838773 26.67123416 321.96377563 29.04098511 C324.50971067 29.17793634 327.05503858 29.32277434 329.6003418 29.47094727 C342.02039649 30.18308151 354.43760972 30.51027104 366.875 30.75 C367.9287381 30.77084656 368.9824762 30.79169312 370.06814575 30.81317139 C387.94395451 31.16272238 405.80831995 31.38998813 423.6875 31.1875 C424.52682068 31.17889954 425.36614136 31.17029907 426.230896 31.16143799 C455.72266942 30.85412786 485.10767561 29.67736835 514.546875 27.90625 C522.59766158 27.42321233 530.64868669 26.94962193 538.703125 26.53125 C539.59932556 26.48093628 540.49552612 26.43062256 541.41888428 26.37878418 C543.50680072 26.27465978 545.59732635 26.2250641 547.6875 26.1875 C549.41323304 27.91323304 548.81361526 30.2184857 548.81448364 32.5712738 C548.81871338 34.32335144 548.81871338 34.32335144 548.82302856 36.11082458 C548.82100433 37.40383987 548.8189801 38.69685516 548.81689453 40.02905273 C548.81824857 41.39539639 548.82002851 42.76173968 548.82220459 44.12808228 C548.82677908 47.8491221 548.82498919 51.57013432 548.8218255 55.29117465 C548.81930147 59.17800902 548.82163961 63.06484096 548.82321167 66.95167542 C548.82503346 73.48121568 548.82262705 80.01074465 548.81787109 86.5402832 C548.81243073 94.09687278 548.81418945 101.65343537 548.8196975 109.2100243 C548.82423109 115.68815608 548.8248779 122.16627972 548.82225883 128.64441258 C548.82069712 132.51773684 548.82049936 136.39104841 548.82379532 140.26437187 C548.82667751 143.90618659 548.82469189 147.54796643 548.81890106 151.18977737 C548.81694121 153.16940004 548.81992458 155.14902565 548.82302856 157.12864685 C548.82020874 158.29951843 548.81738892 159.47039001 548.81448364 160.67674255 C548.81410662 161.69863395 548.81372959 162.72052534 548.81334114 163.77338314 C548.6875 166.1875 548.6875 166.1875 547.6875 168.1875 C482.26677826 168.33998598 416.93104084 163.59390191 351.6875 159.1875 C350.44704926 159.10414398 349.20659851 159.02078796 347.92855835 158.93490601 C333.77497942 157.98201563 319.63176822 156.9860957 305.5 155.75 C292.23676932 154.61091733 278.96718576 153.61379963 265.6875 152.6875 C252.99070304 151.801697 240.30547085 150.8445438 227.625 149.75 C203.34762714 147.66161252 179.03346281 146.04446602 154.72314453 144.39385986 C151.40800247 144.16850006 148.09300636 143.94106925 144.77807617 143.71261597 C107.56228013 141.19643171 70.36785291 139.82489662 33.06640625 139.87182617 C29.06010754 139.87647092 25.05411161 139.86944844 21.04785156 139.85131836 C-0.52425401 139.75485075 -21.98733558 140.0288223 -43.51171875 141.56640625 C-44.37434452 141.62797094 -45.23697029 141.68953564 -46.12573624 141.75296593 C-102.6358904 145.88795795 -180.48441402 153.73438525 -221.1953125 198.24609375 C-221.72898437 198.88675781 -222.26265625 199.52742188 -222.8125 200.1875 C-223.6375 201.1775 -224.4625 202.1675 -225.3125 203.1875 C-225.9725 203.1875 -226.6325 203.1875 -227.3125 203.1875 C-227.539375 203.72375 -227.76625 204.26 -228 204.8125 C-229.72878055 207.94076956 -232.02145262 210.44941899 -234.3125 213.1875 C-235.1478125 214.610625 -235.1478125 214.610625 -236 216.0625 C-236.433125 216.76375 -236.86625 217.465 -237.3125 218.1875 C-237.9725 218.1875 -238.6325 218.1875 -239.3125 218.1875 C-239.44398438 218.95320313 -239.44398438 218.95320313 -239.578125 219.734375 C-240.40166689 222.48535535 -241.64995045 224.88478975 -242.99169922 227.41577148 C-247.5842452 236.08674122 -250.80600537 244.69585173 -253.3125 254.1875 C-253.48346191 254.81148682 -253.65442383 255.43547363 -253.83056641 256.07836914 C-255.77430339 263.83019935 -256.24698269 271.81167986 -256.9375 279.75 C-257.07237976 281.25069939 -257.20779215 282.75135102 -257.34375 284.25195312 C-257.6728091 287.89660514 -257.9946562 291.54185076 -258.3125 295.1875 C-278.99285397 296.07525124 -299.61620963 296.31533986 -320.3125 296.1875 C-320.46283691 294.98758423 -320.46283691 294.98758423 -320.61621094 293.76342773 C-323.20039951 272.72445096 -323.20039951 272.72445096 -328.3125 252.1875 C-328.63089844 251.09179688 -328.94929687 249.99609375 -329.27734375 248.8671875 C-332.07336544 239.36745117 -334.97054691 229.59114803 -340.3125 221.1875 C-341.0034375 220.094375 -341.694375 219.00125 -342.40625 217.875 C-349.3312706 207.18534172 -356.77151124 196.34521881 -366.8515625 188.37109375 C-368.3125 187.1875 -368.3125 187.1875 -370.5625 184.75 C-374.07322146 181.47864591 -377.9691909 179.18859961 -382.08203125 176.73828125 C-382.81808594 176.22652344 -383.55414062 175.71476562 -384.3125 175.1875 C-384.3125 174.5275 -384.3125 173.8675 -384.3125 173.1875 C-384.86550781 173.08695313 -385.41851563 172.98640625 -385.98828125 172.8828125 C-388.84527177 172.02811618 -390.97471265 170.65104465 -393.5 169.0625 C-449.30264017 136.07903355 -522.92972595 138.53147211 -585.3125 139.1875 C-586.10466919 139.1948114 -586.89683838 139.2021228 -587.7130127 139.20965576 C-628.62303417 139.59971008 -669.56558553 143.79755845 -710.3125 147.25 C-711.04764832 147.31228664 -711.78279663 147.37457329 -712.54022217 147.43874741 C-728.96800584 148.83240198 -745.39052085 150.27755992 -761.80859375 151.78125 C-772.99209325 152.80530311 -784.17594732 153.7866125 -795.375 154.625 C-796.94889743 154.74465509 -798.52279045 154.86436806 -800.09667969 154.98413086 C-817.39629238 156.29303934 -834.70231607 157.51724643 -852.00805664 158.74194336 C-853.13077972 158.8214473 -854.25350281 158.90095123 -855.4102478 158.98286438 C-857.6779154 159.14342774 -859.94559537 159.30381645 -862.21328735 159.46403503 C-867.68525227 159.85222705 -873.15637251 160.24850453 -878.6262207 160.66552734 C-896.99400089 162.06412959 -915.3731418 163.23488823 -933.7590332 164.36474609 C-937.2298523 164.57809032 -940.70055041 164.79324953 -944.17114258 165.01025391 C-979.26043017 167.20394402 -1014.36068164 169.12557923 -1049.5 170.3125 C-1050.72483093 170.35452545 -1051.94966187 170.3965509 -1053.21160889 170.43984985 C-1070.62085745 171.02681234 -1088.01815795 171.37607276 -1105.4375 171.375 C-1106.40859711 171.37590637 -1107.37969421 171.37681274 -1108.38021851 171.37774658 C-1111.06866691 171.37745801 -1113.75690028 171.36879046 -1116.4453125 171.35546875 C-1117.23703354 171.35426529 -1118.02875458 171.35306183 -1118.84446716 171.3518219 C-1124.19539226 171.30460774 -1124.19539226 171.30460774 -1125.3125 170.1875 C-1125.41553608 168.34457456 -1125.44771777 166.49766684 -1125.45294189 164.65187073 C-1125.45865204 163.45016235 -1125.46436218 162.24845398 -1125.47024536 161.0103302 C-1125.47149084 159.66647349 -1125.47261591 158.32261667 -1125.47363281 156.97875977 C-1125.47825863 155.57300688 -1125.48328297 154.16725527 -1125.48867798 152.76150513 C-1125.50182578 148.93304025 -1125.50825142 145.10459292 -1125.51268864 141.27610898 C-1125.51561522 138.8868945 -1125.51971919 136.49768487 -1125.52419281 134.10847282 C-1125.53787331 126.64084379 -1125.54753755 119.17322577 -1125.5513947 111.70558506 C-1125.55587857 103.07085881 -1125.57343929 94.43629061 -1125.6023953 85.80161244 C-1125.62397403 79.1366447 -1125.63409692 72.47172156 -1125.63543582 65.80671924 C-1125.63648649 61.82155508 -1125.64244963 57.83653937 -1125.66025543 53.85141182 C-1125.67667081 50.10447132 -1125.67892378 46.35779192 -1125.67011642 42.6108284 C-1125.66934255 41.23292405 -1125.67373461 39.85500604 -1125.68357468 38.47713661 C-1125.69618765 36.60150407 -1125.68866479 34.72576781 -1125.67999268 32.85011292 C-1125.68145924 31.79872415 -1125.6829258 30.74733538 -1125.6844368 29.66408634 C-1125.56169765 28.84681285 -1125.43895851 28.02953936 -1125.3125 27.1875 C-1122.3125 25.1875 -1122.3125 25.1875 -1120.42593384 25.53918457 C-1119.37978409 25.86010071 -1119.37978409 25.86010071 -1118.3125 26.1875 C-1116.71065697 26.34726196 -1115.10469865 26.46821164 -1113.49755859 26.56054688 C-1112.5407016 26.61730591 -1111.5838446 26.67406494 -1110.59799194 26.73254395 C-1109.56276398 26.78986694 -1108.52753601 26.84718994 -1107.4609375 26.90625 C-1105.83063095 27.00045227 -1105.83063095 27.00045227 -1104.16738892 27.09655762 C-1101.85241993 27.22945632 -1099.53734185 27.36046591 -1097.22216797 27.48974609 C-1093.77673316 27.68250768 -1090.33172204 27.88172302 -1086.88671875 28.08203125 C-1061.49977662 29.53976455 -1036.18075799 30.39625955 -1010.75 30.375 C-1010.07649757 30.37473312 -1009.40299515 30.37446625 -1008.70908356 30.37419128 C-979.2140164 30.35964892 -949.77579368 29.59849496 -920.3125 28.1875 C-919.03874512 28.1266925 -917.76499023 28.06588501 -916.45263672 28.00323486 C-872.08004019 25.85690675 -827.82924453 22.4312468 -783.55956268 18.76796722 C-763.80961878 17.13396313 -744.05352067 15.58493961 -724.29441452 14.06615448 C-721.86573645 13.87910022 -719.43714148 13.69100522 -717.00857544 13.50250244 C-696.45188214 11.90744863 -675.89243292 10.4510297 -655.3125 9.1875 C-654.37466675 9.12835419 -653.4368335 9.06920837 -652.47058105 9.00827026 C-625.17719849 7.28914162 -597.89291275 6.97456236 -570.55428314 6.9416275 C-567.91746228 6.93756541 -565.28067059 6.93006916 -562.64385986 6.92181396 C-535.13680058 6.84683527 -507.74048001 7.42812259 -480.4375 11.125 C-479.09240761 11.30109529 -477.74727318 11.4768697 -476.40209961 11.65234375 C-461.16272335 13.66487603 -446.21254756 16.41002315 -431.3125 20.1875 C-430.45462891 20.40277344 -429.59675781 20.61804687 -428.71289062 20.83984375 C-416.52680231 23.92780027 -404.81310814 27.57567986 -393.20507812 32.40869141 C-391.55951456 33.08585185 -389.89807956 33.72418999 -388.234375 34.35546875 C-373.98413708 39.86847979 -360.32665514 47.78917957 -348.3125 57.1875 C-346.25074089 58.70933759 -344.188217 60.23013952 -342.125 61.75 C-331.6501728 69.64367682 -331.6501728 69.64367682 -328.3125 73.1875 C-328.3125 73.8475 -328.3125 74.5075 -328.3125 75.1875 C-327.6525 75.1875 -326.9925 75.1875 -326.3125 75.1875 C-326.3125 75.8475 -326.3125 76.5075 -326.3125 77.1875 C-325.384375 77.55875 -325.384375 77.55875 -324.4375 77.9375 C-321.96181313 79.39378639 -321.36124998 80.56562506 -320.3125 83.1875 C-319.6525 83.1875 -318.9925 83.1875 -318.3125 83.1875 C-316.66329687 85.11106782 -315.13557296 87.03397616 -313.625 89.0625 C-313.17584229 89.65820801 -312.72668457 90.25391602 -312.26391602 90.86767578 C-310.93807589 92.63467244 -309.62338942 94.4093935 -308.3125 96.1875 C-307.68601562 97.033125 -307.05953125 97.87875 -306.4140625 98.75 C-302.81951409 103.74524099 -299.56482438 108.9283137 -296.375 114.1875 C-295.7715979 115.1772583 -295.7715979 115.1772583 -295.15600586 116.18701172 C-292.3125 120.94497556 -292.3125 120.94497556 -292.3125 123.1875 C-291.3225 123.1875 -290.3325 123.1875 -289.3125 123.1875 C-289.044375 122.61 -288.77625 122.0325 -288.5 121.4375 C-287.28320811 119.13199957 -286.00916121 117.16693808 -284.3125 115.1875 C-283.6525 115.1875 -282.9925 115.1875 -282.3125 115.1875 C-282.044375 114.61515625 -281.77625 114.0428125 -281.5 113.453125 C-280.27117364 111.10865366 -278.88727824 109.06345062 -277.3125 106.9375 C-276.796875 106.23109375 -276.28125 105.5246875 -275.75 104.796875 C-275.0384375 104.00023437 -275.0384375 104.00023437 -274.3125 103.1875 C-273.6525 103.1875 -272.9925 103.1875 -272.3125 103.1875 C-272.0546875 102.61515625 -271.796875 102.0428125 -271.53125 101.453125 C-270.19884058 98.97621005 -268.66193882 97.0533834 -266.8125 94.9375 C-266.2040625 94.23109375 -265.595625 93.5246875 -264.96875 92.796875 C-263.3125 91.1875 -263.3125 91.1875 -261.3125 91.1875 C-261.044375 90.548125 -260.77625 89.90875 -260.5 89.25 C-259.3125 87.1875 -259.3125 87.1875 -256.3125 86.1875 C-256.3125 85.1975 -256.3125 84.2075 -256.3125 83.1875 C-254.68179283 81.97246329 -253.04446588 80.76091605 -251.33203125 79.6640625 C-248.71511924 77.75073032 -246.57938272 75.50254108 -244.3125 73.1875 C-223.50590299 53.34787625 -199.12497584 36.96963677 -172.75 25.5625 C-171.16155273 24.86640625 -171.16155273 24.86640625 -169.54101562 24.15625 C-166.47145785 22.81721925 -163.39472722 21.49707642 -160.3125 20.1875 C-159.02158447 19.63521729 -159.02158447 19.63521729 -157.70458984 19.07177734 C-151.61024412 16.53920327 -145.44531327 14.71957652 -139.0625 13.0625 C-137.16105015 12.56144227 -135.25999602 12.05888002 -133.359375 11.5546875 C-132.46879395 11.31911133 -131.57821289 11.08353516 -130.66064453 10.84082031 C-128.89182911 10.34868577 -127.14530875 9.77536508 -125.4140625 9.1640625 C-120.35034538 7.56969313 -115.14775098 6.67907026 -109.9375 5.6875 C-108.85855469 5.47480469 -107.77960937 5.26210937 -106.66796875 5.04296875 C-92.11061379 2.24809377 -77.5921196 0.82921621 -62.8125 0.0625 C-62.02482239 0.02080688 -61.23714478 -0.02088623 -60.42559814 -0.06384277 C-40.21158624 -1.11983282 -20.21627706 -0.90014587 0 0 Z " fill="#FFFFFF" transform="translate(1312.3125,1164.8125)"/>
<path d="M0 0 C4.99252505 3.71239042 8.64083599 8.06407491 12.515625 12.9140625 C14.65239615 15.56822793 16.83171443 18.16839913 19.04882812 20.75463867 C23.37979753 25.80819773 27.60214023 30.93289983 31.6875 36.1875 C32.1218335 36.74034668 32.55616699 37.29319336 33.00366211 37.86279297 C36 41.76041853 36 41.76041853 36 44 C36.66 44 37.32 44 38 44 C39.4045405 45.82227022 40.72167292 47.71207484 42 49.625 C42.81134627 50.8276021 43.62388741 52.02939876 44.4375 53.23046875 C44.85902344 53.8548584 45.28054688 54.47924805 45.71484375 55.12255859 C47.35259268 57.51509074 49.04697676 59.8633147 50.74853516 62.21069336 C56.12515145 69.62950083 61.1335358 77.23904358 66 85 C66.63292969 86.0003125 67.26585937 87.000625 67.91796875 88.03125 C72.10108235 94.72423176 76.07391869 101.52884567 80 108.375 C80.4741333 109.20008057 80.9482666 110.02516113 81.43676758 110.87524414 C88.65762292 123.54330388 95.2747053 136.30651567 101.0625 149.6875 C101.36503693 150.38310028 101.66757385 151.07870056 101.97927856 151.79537964 C106.85760567 163.03353087 111.30067646 174.31397987 115 186 C115.2892334 186.88880859 115.5784668 187.77761719 115.87646484 188.69335938 C126.86515429 222.53173178 132.22848002 257.08238716 132.25 292.625 C132.25067474 293.62721588 132.25134949 294.62943176 132.25204468 295.66201782 C132.2353204 311.32391608 131.59645229 326.52535246 129 342 C128.8443457 342.99708984 128.68869141 343.99417969 128.52832031 345.02148438 C123.73554319 375.27050886 114.49768348 404.11388831 102 432 C101.30588101 433.58849423 100.61185757 435.17703021 99.91796875 436.765625 C94.86118498 448.10305228 88.61952832 458.81213736 82.41259766 469.54931641 C81.30739337 471.46671021 80.2188137 473.39368876 79.13671875 475.32421875 C73.52621442 485.25495639 67.12303376 494.72353766 60.83203125 504.23095703 C59.69057271 505.95622659 58.55202886 507.68343252 57.41796875 509.41357422 C51.2989004 518.73443272 44.81439869 527.02711896 37 535 C36.32839844 535.69867187 35.65679688 536.39734375 34.96484375 537.1171875 C31.50068846 540.6650916 27.93584301 543.97946932 24 547 C23.34 547 22.68 547 22 547 C22 547.66 22 548.32 22 549 C20.3828125 550.375 20.3828125 550.375 18.125 552 C8.84448093 558.91409079 8.84448093 558.91409079 2 568 C1.34 568 0.68 568 0 568 C-0.39058594 568.83144531 -0.39058594 568.83144531 -0.7890625 569.6796875 C-2.15290929 572.29299393 -3.73830928 574.67353748 -5.375 577.125 C-13.57372802 589.90135117 -16.14038254 603.67431869 -13.31640625 618.6171875 C-11.42038223 625.17853205 -8.64422758 630.98513011 -5.171875 636.85546875 C-4 639 -4 639 -4 641 C-3.34 641 -2.68 641 -2 641 C-0.80884444 642.47277727 0.38168266 643.94607079 1.56787109 645.42285156 C3.8046787 647.88616167 6.40968407 649.28544392 9.3125 650.875 C9.91352539 651.20959229 10.51455078 651.54418457 11.13378906 651.88891602 C14.41452614 653.69146788 17.7377367 655.37152501 21.12109375 656.97265625 C36.58389236 664.29819586 45.34859141 673.13745707 52 689 C52.04487549 688.30664551 52.08975098 687.61329102 52.13598633 686.89892578 C54.26035832 654.89313212 57.15537335 624.43936404 81.875 601.25 C91.40345033 593.00280961 101.97356977 587.70722574 113.6484375 583.1953125 C145.96089846 570.67326528 170.22565322 550.98226979 185.55859375 519.35546875 C211.58901548 458.75890435 187.40168669 391.95366324 168.04296875 332.8984375 C167.69174454 331.82632523 167.34052032 330.75421295 166.97865295 329.64961243 C165.21689315 324.27502549 163.44949714 318.90240163 161.67211914 313.53295898 C158.6242264 304.29665417 155.62534299 295.05228024 152.953125 285.69921875 C152.62740509 284.58641289 152.62740509 284.58641289 152.29510498 283.4511261 C150.88068611 278.35794167 150.88068611 278.35794167 152 275 C161.40411603 281.45336345 170.50295092 288.02106968 179.10546875 295.515625 C182.45513891 298.39064554 185.93137659 301.04835373 189.48828125 303.66015625 C189.98714844 304.10230469 190.48601562 304.54445313 191 305 C191 305.66 191 306.32 191 307 C191.88401489 307.39614502 191.88401489 307.39614502 192.78588867 307.80029297 C195.08447149 309.04577052 196.58939517 310.34552214 198.42578125 312.1953125 C199.05387695 312.82453613 199.68197266 313.45375977 200.32910156 314.10205078 C201.31088379 315.10341064 201.31088379 315.10341064 202.3125 316.125 C202.98893555 316.80933105 203.66537109 317.49366211 204.36230469 318.19873047 C208.7506181 322.66248462 212.99029265 327.19197988 217 332 C217.83789062 332.97195313 218.67578125 333.94390625 219.5390625 334.9453125 C243.37258491 362.63450258 261.86202207 394.15883789 273 429 C273.23847656 429.73798828 273.47695312 430.47597656 273.72265625 431.23632812 C289.36466464 480.53100029 284.38031644 534.73517715 261.19824219 580.81469727 C256.62000945 589.55506692 251.07238375 597.69409777 245.48339844 605.81152344 C244.42437192 607.37391871 243.38837536 608.95202614 242.36816406 610.54003906 C241.57104004 611.77705566 241.57104004 611.77705566 240.7578125 613.0390625 C240.27715332 613.79654785 239.79649414 614.5540332 239.30126953 615.33447266 C238.87185059 615.88409668 238.44243164 616.4337207 238 617 C237.34 617 236.68 617 236 617 C235.78085938 617.52722656 235.56171875 618.05445313 235.3359375 618.59765625 C233.50407755 621.89179036 231.09053288 624.61032962 228.625 627.4375 C228.09261719 628.05294678 227.56023437 628.66839355 227.01171875 629.30249023 C221.9675224 635.10109066 216.76807419 640.74917669 211.52197266 646.36474609 C209.94848734 648.05534678 208.38506955 649.75476268 206.82421875 651.45703125 C198.15287865 660.90912675 198.15287865 660.90912675 193.8125 665.1875 C191.03294039 667.67059608 191.03294039 667.67059608 190 670 C189.34 670 188.68 670 188 670 C187.77054688 670.55945312 187.54109375 671.11890625 187.3046875 671.6953125 C185.64929605 674.61950698 183.55605765 676.55936349 181.125 678.875 C177.05495761 682.80374704 177.05495761 682.80374704 173.6875 687.3125 C171.7791525 690.35172009 169.56619776 692.49348126 167 695 C162.28369164 700.16317821 157.90849831 705.55317812 153.6875 711.125 C153.12554932 711.86580811 152.56359863 712.60661621 151.98461914 713.36987305 C150.31755069 715.57582061 148.65761871 717.78694617 147 720 C146.54689453 720.60118652 146.09378906 721.20237305 145.62695312 721.82177734 C119.48641934 756.67246588 102.71767638 797.29239562 91 839 C89 838 89 838 88.31738281 836.10498047 C88.11467773 835.28400879 87.91197266 834.46303711 87.703125 833.6171875 C87.46996582 832.70477295 87.23680664 831.7923584 86.99658203 830.85229492 C86.62702393 829.37853394 86.62702393 829.37853394 86.25 827.875 C83.8013951 818.5461602 80.92071146 809.82872073 77 801 C76.71431152 800.33194336 76.42862305 799.66388672 76.13427734 798.97558594 C71.30531945 787.71062636 65.32689736 777.81330121 58 768 C56.97519531 766.6078125 56.97519531 766.6078125 55.9296875 765.1875 C44.05891739 749.65913241 44.05891739 749.65913241 29 738 C29 737.34 29 736.68 29 736 C28.47664062 735.78472656 27.95328125 735.56945313 27.4140625 735.34765625 C24.03204369 733.45963604 21.2866829 730.9754736 18.375 728.4375 C14.44179069 724.85426322 14.44179069 724.85426322 10 722 C10 721.34 10 720.68 10 720 C9.44570313 719.75378906 8.89140625 719.50757813 8.3203125 719.25390625 C5.554534 717.75926837 3.30223137 715.9336261 0.875 713.9375 C-2.38551023 711.19551253 -2.38551023 711.19551253 -6 709 C-6 708.34 -6 707.68 -6 707 C-6.59458008 706.72760498 -7.18916016 706.45520996 -7.80175781 706.17456055 C-9.94440556 705.02970512 -11.42006637 703.87355302 -13.171875 702.20703125 C-13.75453125 701.65853516 -14.3371875 701.11003906 -14.9375 700.54492188 C-15.535625 699.97322266 -16.13375 699.40152344 -16.75 698.8125 C-20.40089391 695.35142026 -24.05984701 691.92549575 -27.87109375 688.640625 C-70.78221816 651.32007089 -93.18836443 600.72030732 -97.8190918 544.35888672 C-99.24848272 517.81966907 -98.78924495 491.17583962 -94 465 C-93.8340332 464.06542969 -93.66806641 463.13085938 -93.49707031 462.16796875 C-86.04073544 421.98412812 -66.25175308 381.93608969 -46.01367188 346.77197266 C-44.55511299 344.22230493 -43.15095939 341.64416486 -41.75 339.0625 C-41.10695923 337.88046997 -41.10695923 337.88046997 -40.45092773 336.67456055 C-39.51841633 334.9556202 -38.59015429 333.23436407 -37.66723633 331.51025391 C-33.96895072 324.64080952 -30.00077646 317.97079674 -25.9375 311.3125 C-19.08362469 299.98236491 -12.66673749 288.46429621 -6.46826172 276.76464844 C-5.08597849 274.16189232 -3.6882105 271.56816509 -2.28515625 268.9765625 C18.39354734 230.59456483 30.49265624 190.72786823 30.3125 147 C30.31034485 146.05501648 30.3081897 145.11003296 30.30596924 144.13641357 C30.16442043 105.35776776 21.38836885 68.26236508 9.9375 31.375 C9.72975952 30.70326752 9.52201904 30.03153503 9.3079834 29.33944702 C6.80965683 21.29247986 4.09092699 13.40404569 0.92016602 5.59619141 C0 3 0 3 0 0 Z " fill="#FFFFFF" transform="translate(932,368)"/>
<path d="M0 0 C2.05722572 1.62055045 2.88952514 2.50838687 3.46875 5.0859375 C3.52740006 9.38205437 3.39258275 11.43421899 0.875 15.0625 C-2.50285213 17.33887861 -4.00977991 17.6791864 -8 17 C-11.1359157 15.22015595 -11.84102736 14.47691793 -13 11 C-13.38514834 6.84039789 -13.44225244 4.70150387 -11.1875 1.125 C-7.21737902 -2.73168895 -4.8218816 -2.00911734 0 0 Z " fill="#FFFFFF" transform="translate(966,983)"/>
<path d="" fill="#FFFFFF" transform="translate(0,0)"/>
</svg>
